<svg xmlns="http://www.w3.org/2000/svg" xmlns:xlink="http://www.w3.org/1999/xlink" id="svg10" width="24" height="24" version="1.1" viewBox="0 0 24 24"><metadata id="metadata16"/><defs id="defs14"><linearGradient id="linearGradient835"><stop style="stop-color:#00c1ff;stop-opacity:1" id="stop831" offset="0"/><stop style="stop-color:#d320fc;stop-opacity:1" id="stop833" offset="1"/></linearGradient><linearGradient id="linearGradient839" x1="5.288" x2="18.842" y1="20.392" y2="3.608" gradientUnits="userSpaceOnUse" xlink:href="#linearGradient835"/></defs><g id="g18"><path style="fill:url(#linearGradient839);stroke:none;stroke-width:.0391346;fill-opacity:1" id="path853" d="M 11.636099,3.6118572 C 10.577311,3.6967796 9.5547219,3.9509198 8.6227301,4.4751676 6.2394687,5.8158036 4.8696384,8.5869679 5.2088185,11.303148 c 0.2511269,2.011207 1.4397248,3.835587 2.7077268,5.361448 0.8568924,1.03112 1.7982377,1.987218 2.7803217,2.898664 0.367749,0.341294 0.813844,0.884013 1.369713,0.837247 0.48441,-0.04074 0.87869,-0.504093 1.213174,-0.812944 0.83032,-0.766649 1.632346,-1.560808 2.374222,-2.414216 1.417104,-1.630076 2.85405,-3.586692 3.133591,-5.79193 C 19.04926,9.3172204 18.365694,7.1304541 16.909062,5.6341014 15.947838,4.6466165 14.669151,3.9840278 13.318889,3.7298873 12.767794,3.6261412 12.196429,3.5669305 11.636099,3.6118572 m -0.07828,2.346788 c 0.669987,-0.065863 1.363257,0.00482 1.995869,0.238917 2.180114,0.8068392 3.380138,3.2458284 2.671527,5.4577968 -0.157517,0.491728 -0.402343,0.964004 -0.722426,1.369713 -0.352095,0.446253 -0.789776,0.831298 -1.283812,1.113147 -0.537006,0.306385 -1.146059,0.493565 -1.76106,0.552816 -0.536967,0.05173 -1.085282,0 -1.604521,-0.144017 C 10.378232,14.415253 9.925953,14.200365 9.5228271,13.916247 7.4941259,12.486423 7.0546044,9.5826316 8.5778819,7.6245684 8.9318549,7.1695105 9.373098,6.7888477 9.875039,6.5048474 10.389737,6.2135681 10.967639,6.0166817 11.55783,5.9586452 Z"/></g></svg>