<?xml version="1.0"?>
<svg xmlns="http://www.w3.org/2000/svg" xmlns:xlink="http://www.w3.org/1999/xlink" xmlns:svgjs="http://svgjs.com/svgjs" version="1.1" width="512" height="512" x="0" y="0" viewBox="0 0 512 512" style="enable-background:new 0 0 512 512" xml:space="preserve" class=""><g transform="matrix(0.76,0,0,0.76,61.43988098144524,61.44)">
<g xmlns="http://www.w3.org/2000/svg">
	<path style="" d="M256,362.667c-11.776,0-21.333-9.536-21.333-21.333v-320C234.667,9.557,244.224,0,256,0   s21.333,9.557,21.333,21.333v320C277.333,353.131,267.776,362.667,256,362.667z" fill="#1681df" data-original="#1138f7" class=""/>
	<polygon style="" points="320,256 256,341.333 192,256  " fill="#1681df" data-original="#1138f7" class=""/>
	<path style="" d="M256,362.667c-6.72,0-13.035-3.157-17.067-8.533l-64-85.333c-4.864-6.464-5.632-15.104-2.027-22.336   s11.008-11.797,19.093-11.797h128c8.085,0,15.467,4.565,19.093,11.797c3.605,7.232,2.837,15.872-2.027,22.336l-64,85.333   C269.035,359.509,262.72,362.667,256,362.667z M234.667,277.333L256,305.771l21.333-28.437H234.667z" fill="#1681df" data-original="#1138f7" class=""/>
	<path style="" d="M405.333,512H106.667C47.851,512,0,464.149,0,405.333v-64C0,329.536,9.557,320,21.333,320   s21.333,9.536,21.333,21.333v64c0,35.285,28.715,64,64,64h298.667c35.285,0,64-28.715,64-64v-64   c0-11.797,9.536-21.333,21.333-21.333c11.797,0,21.333,9.536,21.333,21.333v64C512,464.149,464.149,512,405.333,512z" fill="#1681df" data-original="#1138f7" class=""/>
</g>
<g xmlns="http://www.w3.org/2000/svg">
</g>
<g xmlns="http://www.w3.org/2000/svg">
</g>
<g xmlns="http://www.w3.org/2000/svg">
</g>
<g xmlns="http://www.w3.org/2000/svg">
</g>
<g xmlns="http://www.w3.org/2000/svg">
</g>
<g xmlns="http://www.w3.org/2000/svg">
</g>
<g xmlns="http://www.w3.org/2000/svg">
</g>
<g xmlns="http://www.w3.org/2000/svg">
</g>
<g xmlns="http://www.w3.org/2000/svg">
</g>
<g xmlns="http://www.w3.org/2000/svg">
</g>
<g xmlns="http://www.w3.org/2000/svg">
</g>
<g xmlns="http://www.w3.org/2000/svg">
</g>
<g xmlns="http://www.w3.org/2000/svg">
</g>
<g xmlns="http://www.w3.org/2000/svg">
</g>
<g xmlns="http://www.w3.org/2000/svg">
</g>
</g></svg>
